{"asset":{"version":"2.0","generator":"THREE.GLTFExporter"},"scenes":[{"name":"AuxScene","nodes":[2]}],"scene":0,"nodes":[{"matrix":[0.03,0,0,0,0,-0.03,0,0,0,0,0.03,0,0,0,0,1],"mesh":0},{"matrix":[1,0,0,0,0,1,0,0,0,0,1,0,-12.95947883605957,12.960238351821898,-0.015,1],"children":[0]},{"children":[1]}],"bufferViews":[{"buffer":0,"byteOffset":0,"byteLength":352368,"target":34962,"byteStride":12},{"buffer":0,"byteOffset":352368,"byteLength":352368,"target":34962,"byteStride":12},{"buffer":0,"byteOffset":704736,"byteLength":352368,"target":34962,"byteStride":12},{"buffer":0,"byteOffset":1057104,"byteLength":234912,"target":34962,"byteStride":8}],"buffers":[{"byteLength":1292016,"uri":"data:application/octet-stream;base64,"}],"accessors":[{"bufferView":0,"componentType":5126,"count":29364,"max":[761.8389282226562,832.017333984375,7],"min":[102.12632751464844,31.99855613708496,-6],"type":"VEC3"},{"bufferView":1,"componentType":5126,"count":29364,"max":[1,0.9992355108261108,1],"min":[-0.999998927116394,-0.9999990463256836,-1],"type":"VEC3"},{"bufferView":2,"componentType":5126,"count":29364,"max":[1,1,1],"min":[1,1,1],"type":"VEC3"},{"bufferView":3,"componentType":5126,"count":29364,"max":[832.017333984375,827.9978637695312],"min":[31.99855613708496,-6],"type":"VEC2"}],"materials":[{"pbrMetallicRoughness":{"baseColorFactor":[0.4666666666666667,0.4666666666666667,0.4666666666666667,1],"metallicFactor":0.5,"roughnessFactor":0.5}}],"meshes":[{"primitives":[{"mode":4,"attributes":{"POSITION":0,"NORMAL":1,"COLOR_0":2,"TEXCOORD_0":3},"material":0}]}]}