{"asset":{"version":"2.0","generator":"THREE.GLTFExporter"},"scenes":[{"name":"AuxScene","nodes":[2]}],"scene":0,"nodes":[{"matrix":[0.03,0,0,0,0,-0.03,0,0,0,0,0.03,0,0,0,0,1],"mesh":0},{"matrix":[1,0,0,0,0,1,0,0,0,0,1,0,-12.960669994354246,12.959518547058105,-0.015,1],"children":[0]},{"children":[1]}],"bufferViews":[{"buffer":0,"byteOffset":0,"byteLength":352944,"target":34962,"byteStride":12},{"buffer":0,"byteOffset":352944,"byteLength":352944,"target":34962,"byteStride":12},{"buffer":0,"byteOffset":705888,"byteLength":352944,"target":34962,"byteStride":12},{"buffer":0,"byteOffset":1058832,"byteLength":235296,"target":34962,"byteStride":8}],"buffers":[{"byteLength":1294128,"uri":"data:application/octet-stream;base64,"}],"accessors":[{"bufferView":0,"componentType":5126,"count":29412,"max":[816.1292114257812,831.92919921875,7],"min":[47.91545486450195,32.03870391845703,-6],"type":"VEC3"},{"bufferView":1,"componentType":5126,"count":29412,"max":[0.9999997019767761,0.9999986886978149,1],"min":[-0.9999979734420776,-0.9999897480010986,-1],"type":"VEC3"},{"bufferView":2,"componentType":5126,"count":29412,"max":[1,1,1],"min":[1,1,1],"type":"VEC3"},{"bufferView":3,"componentType":5126,"count":29412,"max":[831.92919921875,827.919189453125],"min":[32.03870391845703,-6],"type":"VEC2"}],"materials":[{"pbrMetallicRoughness":{"baseColorFactor":[0.4666666666666667,0.4666666666666667,0.4666666666666667,1],"metallicFactor":0.5,"roughnessFactor":0.5}}],"meshes":[{"primitives":[{"mode":4,"attributes":{"POSITION":0,"NORMAL":1,"COLOR_0":2,"TEXCOORD_0":3},"material":0}]}]}